<svg xmlns="http://www.w3.org/2000/svg" width="67" height="76" viewBox="0 0 67 76" fill="none">
  <path fill-rule="evenodd" clip-rule="evenodd" d="M6.7251 33.3043V26.2609C6.7251 14.2087 15.8601 4.1913 27.8301 2.93913L36.6501 2V6.69565C49.7226 6.69565 60.2751 17.1826 60.2751 30.1739V33.3043H58.7001L52.4001 28.6087L49.2501 20.7826C49.2501 20.7826 42.4583 17.6522 33.5001 17.6522C24.5419 17.6522 17.7501 20.7826 17.7501 20.7826L14.6001 28.6087L8.3001 33.3043H6.7251Z" fill="white" stroke="white" stroke-width="3.13043"/>
  <ellipse cx="23.2627" cy="38.7826" rx="3.9375" ry="3.91304" fill="white"/>
  <ellipse cx="43.7373" cy="38.7826" rx="3.9375" ry="3.91304" fill="white"/>
  <path d="M42.9498 53.2174L42.6348 53.8435C40.9023 57.287 37.4373 59.4783 33.4998 59.4783V59.4783C29.5623 59.4783 26.0973 57.287 24.3648 53.8435L24.0498 53.2174" stroke="white" stroke-width="3.13043"/>
  <path d="M8.2998 33.3044L14.5998 28.6087L17.7498 20.7827C22.7898 18.5914 28.1448 17.6522 33.4998 17.6522C38.8548 17.6522 44.2098 18.5914 49.2498 20.7827L52.3998 28.6087L58.6998 33.3044" stroke="white" stroke-width="3.13043"/>
  <path d="M9.875 42.6956V37.2174C9.875 35.0261 8.1425 33.3043 5.9375 33.3043C3.7325 33.3043 2 35.0261 2 37.2174V41.1304C2 45.513 5.465 48.9565 9.875 48.9565C9.875 54.9043 12.395 60.6956 16.9625 64.6087L22.79 69.6174C25.625 72.4348 29.405 74 33.5 74C37.595 74 41.375 72.4348 44.21 69.6174L50.0375 64.6087C54.605 60.6956 57.125 54.9043 57.125 48.9565C61.535 48.9565 65 45.513 65 41.1304V37.2174C65 35.0261 63.2675 33.3043 61.0625 33.3043C58.8575 33.3043 57.125 35.0261 57.125 37.2174V42.6956" stroke="white" stroke-width="3.13043"/>
</svg>