<svg width="144" height="24" viewBox="0 0 144 24" fill="none" xmlns="http://www.w3.org/2000/svg">
<g id="Share">
<g id="Twitter">
<circle id="Oval 1" cx="52" cy="12" r="12" fill="#55ACEE"/>
<path id="Fill 1" fill-rule="evenodd" clip-rule="evenodd" d="M57.4967 7.41017C57.158 7.62712 56.3803 7.94238 55.9968 7.94238V7.94303C55.5589 7.48555 54.9424 7.19995 54.2586 7.19995C52.9306 7.19995 51.8537 8.27681 51.8537 9.6043C51.8537 9.78874 51.8751 9.96865 51.9146 10.1412H51.9142C50.1128 10.0939 48.1426 9.19099 46.9566 7.64564C46.2273 8.90785 46.8584 10.3116 47.6859 10.8231C47.4026 10.8445 46.8812 10.7905 46.6357 10.551C46.6193 11.3888 47.0221 12.4988 48.4909 12.9015C48.208 13.0537 47.7073 13.01 47.4896 12.9776C47.566 13.6848 48.5563 14.6094 49.6393 14.6094C49.2533 15.0558 47.8011 15.8656 46.1714 15.608C47.2782 16.2814 48.5681 16.6714 49.9334 16.6714C53.8133 16.6714 56.8264 13.5269 56.6642 9.64782C56.6636 9.64355 56.6636 9.63927 56.6632 9.63461C56.6636 9.62464 56.6642 9.61466 56.6642 9.6043C56.6642 9.59226 56.6632 9.58086 56.6628 9.5692C57.016 9.32764 57.49 8.90034 57.8285 8.33795C57.6322 8.4461 57.0431 8.66266 56.495 8.71642C56.8467 8.52653 57.3679 7.90469 57.4967 7.41017Z" fill="white"/>
</g>
<g id="ic_insert_link">
<path id="Shape" fill-rule="evenodd" clip-rule="evenodd" d="M126.273 17.7277C125.063 16.5185 125.063 14.5528 126.273 13.3436L129.101 10.5152L127.758 9.17168L124.929 12.0001C122.977 13.9517 122.977 17.1196 124.929 19.0712C126.881 21.0228 130.049 21.0228 132 19.0712L134.829 16.2428L133.485 14.8992L130.657 17.7277C129.448 18.9368 127.482 18.9368 126.273 17.7277ZM129.879 15.5356L135.536 9.87879L134.121 8.46458L128.465 14.1214L129.879 15.5356ZM132 4.92904L129.172 7.75747L130.515 9.10097L133.344 6.27255C134.553 5.06339 136.519 5.06339 137.728 6.27255C138.937 7.4817 138.937 9.44746 137.728 10.6566L134.899 13.485L136.243 14.8285L139.071 12.0001C141.023 10.0485 141.023 6.88066 139.071 4.92904C137.12 2.97743 133.952 2.97743 132 4.92904Z" fill="#404040"/>
</g>
<g id="Facebook">
<circle id="Oval 1_2" cx="12" cy="12" r="12" fill="#3B5998"/>
<path id="Fill 4" fill-rule="evenodd" clip-rule="evenodd" d="M10.3507 17.841H12.5363V11.8378H14.1759L14.5001 9.96195H12.5363V8.60268C12.5363 8.16449 12.8196 7.70442 13.2245 7.70442H14.3407V5.82861H12.9728V5.83702C10.8325 5.9147 10.3928 7.15425 10.3547 8.45626H10.3507V9.96195H9.25732V11.8378H10.3507V17.841Z" fill="white"/>
</g>
<g id="Linkedin">
<circle id="Oval " cx="92" cy="12" r="12" fill="#0976B4"/>
<path id="Fill 182" fill-rule="evenodd" clip-rule="evenodd" d="M87.3253 8.90287C88.1514 8.90287 88.8211 8.29211 88.8211 7.53786C88.8211 6.78295 88.1514 6.17139 87.3253 6.17139C86.4983 6.17139 85.8286 6.78295 85.8286 7.53786C85.8286 8.29211 86.4983 8.90287 87.3253 8.90287Z" fill="white"/>
<path id="Fill 183" fill-rule="evenodd" clip-rule="evenodd" d="M86.1714 17.6838H88.8554V9.94287H86.1714V17.6838Z" fill="white"/>
<path id="Fill 184" fill-rule="evenodd" clip-rule="evenodd" d="M92.6225 13.3785C92.6225 12.4908 93.0425 11.6227 94.0467 11.6227C95.051 11.6227 95.2979 12.4908 95.2979 13.3573V17.585H97.9699V13.1845C97.9699 10.1272 96.1627 9.6001 95.051 9.6001C93.9402 9.6001 93.3275 9.97582 92.6225 10.8862V9.84408H89.9429V17.585H92.6225V13.3785Z" fill="white"/>
</g>
</g>
</svg>
