<svg width="98" height="32" viewBox="0 0 98 32" fill="none" xmlns="http://www.w3.org/2000/svg">
<g id="Google">
<path id="Vector" d="M41.6009 16.84C41.6009 21.4439 37.9993 24.8364 33.5792 24.8364C29.1592 24.8364 25.5576 21.4439 25.5576 16.84C25.5576 12.2037 29.1592 8.84363 33.5792 8.84363C37.9993 8.84363 41.6009 12.2037 41.6009 16.84ZM38.0894 16.84C38.0894 13.9631 36.002 11.9946 33.5792 11.9946C31.1565 11.9946 29.0691 13.9631 29.0691 16.84C29.0691 19.6882 31.1565 21.6854 33.5792 21.6854C36.002 21.6854 38.0894 19.6845 38.0894 16.84Z" fill="#787878"/>
<path id="Vector_2" d="M58.9061 16.84C58.9061 21.4439 55.3044 24.8364 50.8844 24.8364C46.4644 24.8364 42.8628 21.4439 42.8628 16.84C42.8628 12.2073 46.4644 8.84363 50.8844 8.84363C55.3044 8.84363 58.9061 12.2037 58.9061 16.84ZM55.3946 16.84C55.3946 13.9631 53.3071 11.9946 50.8844 11.9946C48.4617 11.9946 46.3743 13.9631 46.3743 16.84C46.3743 19.6882 48.4617 21.6854 50.8844 21.6854C53.3071 21.6854 55.3946 19.6845 55.3946 16.84Z" fill="#787878"/>
<path id="Vector_3" d="M75.4901 9.32673V23.6827C75.4901 29.5881 72.0074 32 67.8903 32C64.0146 32 61.682 29.4078 60.8024 27.288L63.8596 26.0153C64.404 27.3168 65.7379 28.8526 67.8866 28.8526C70.5221 28.8526 72.1552 27.2267 72.1552 24.1658V23.0158H72.0327C71.2467 23.9856 69.7325 24.8328 67.8218 24.8328C63.8236 24.8328 60.1606 21.3502 60.1606 16.8689C60.1606 12.3551 63.8236 8.84363 67.8218 8.84363C69.7289 8.84363 71.2431 9.69086 72.0327 10.6318H72.1552V9.33033H75.4901V9.32673ZM72.404 16.8689C72.404 14.0532 70.5257 11.9946 68.1354 11.9946C65.7127 11.9946 63.683 14.0532 63.683 16.8689C63.683 19.6557 65.7127 21.6854 68.1354 21.6854C70.5257 21.6854 72.404 19.6557 72.404 16.8689Z" fill="#787878"/>
<path id="Vector_4" d="M80.988 0.912109V24.3461H77.563V0.912109H80.988Z" fill="#787878"/>
<path id="Vector_5" d="M94.3344 19.4718L97.06 21.2888C96.1803 22.5903 94.0604 24.8328 90.3975 24.8328C85.8549 24.8328 82.4624 21.3213 82.4624 16.8364C82.4624 12.0811 85.8838 8.83997 90.0045 8.83997C94.1542 8.83997 96.1839 12.1424 96.8473 13.9269L97.2114 14.8355L86.5219 19.2627C87.3403 20.867 88.6129 21.6854 90.3975 21.6854C92.1857 21.6854 93.4259 20.8057 94.3344 19.4718ZM85.9451 16.5948L93.0906 13.6277C92.6976 12.6291 91.5151 11.9333 90.1235 11.9333C88.3389 11.9333 85.8549 13.5087 85.9451 16.5948Z" fill="#787878"/>
<path id="Vector_6" d="M12.5931 14.7598V11.3673H24.0252C24.137 11.9585 24.1947 12.658 24.1947 13.4151C24.1947 15.9603 23.4989 19.1077 21.2564 21.3502C19.0753 23.6215 16.2884 24.8328 12.5967 24.8328C5.75394 24.8328 0 19.2591 0 12.4164C0 5.57368 5.75394 0 12.5967 0C16.3822 0 19.0789 1.48535 21.105 3.42136L18.7111 5.81523C17.2582 4.45246 15.2898 3.39252 12.5931 3.39252C7.59622 3.39252 3.68815 7.41956 3.68815 12.4164C3.68815 17.4132 7.59622 21.4403 12.5931 21.4403C15.8342 21.4403 17.68 20.1388 18.8626 18.9563C19.8215 17.9973 20.4525 16.6273 20.7012 14.7562L12.5931 14.7598Z" fill="#787878"/>
</g>
</svg>
